# Blender v2.93.1 OBJ File: ''
# www.blender.org
mtllib testText.mtl
o cool_Cool
v 1.473724 0.394067 -0.025584
v 0.903724 0.394067 -0.025584
v 0.903724 0.306067 -0.025584
v 1.139724 0.306067 -0.025584
v 1.139724 -0.287933 -0.025584
v 1.237725 -0.287933 -0.025584
v 1.237725 0.306067 -0.025584
v 1.473724 0.306067 -0.025584
v 0.810724 0.394067 -0.025584
v 0.712724 0.394067 -0.025584
v 0.712724 0.097067 -0.025584
v 0.330724 0.097067 -0.025584
v 0.330724 0.394067 -0.025584
v 0.232724 0.394067 -0.025584
v 0.232724 -0.287933 -0.025584
v 0.330724 -0.287933 -0.025584
v 0.330724 0.009067 -0.025584
v 0.712724 0.009067 -0.025584
v 0.712724 -0.287933 -0.025584
v 0.810724 -0.287933 -0.025584
v 0.090724 0.048067 -0.025584
v -0.138276 0.048067 -0.025584
v -0.138276 -0.039933 -0.025584
v -0.007276 -0.039933 -0.025584
v -0.007276 -0.179933 -0.025584
v -0.019049 -0.183615 -0.025584
v -0.030877 -0.187141 -0.025584
v -0.042776 -0.190480 -0.025584
v -0.054757 -0.193600 -0.025584
v -0.066836 -0.196469 -0.025584
v -0.079026 -0.199058 -0.025584
v -0.091340 -0.201334 -0.025584
v -0.103794 -0.203266 -0.025584
v -0.116401 -0.204824 -0.025584
v -0.129174 -0.205975 -0.025584
v -0.142127 -0.206688 -0.025584
v -0.155276 -0.206933 -0.025584
v -0.194737 -0.204740 -0.025584
v -0.231970 -0.198303 -0.025584
v -0.266744 -0.187839 -0.025584
v -0.298831 -0.173563 -0.025584
v -0.328001 -0.155689 -0.025584
v -0.354026 -0.134433 -0.025584
v -0.376675 -0.110011 -0.025584
v -0.395720 -0.082637 -0.025584
v -0.410932 -0.052527 -0.025584
v -0.422081 -0.019896 -0.025584
v -0.428939 0.015040 -0.025584
v -0.431276 0.052067 -0.025584
v -0.428927 0.088293 -0.025584
v -0.422072 0.122789 -0.025584
v -0.410994 0.155286 -0.025584
v -0.395979 0.185512 -0.025584
v -0.377312 0.213196 -0.025584
v -0.355276 0.238067 -0.025584
v -0.330156 0.259855 -0.025584
v -0.302239 0.278289 -0.025584
v -0.271807 0.293098 -0.025584
v -0.239146 0.304012 -0.025584
v -0.204541 0.310758 -0.025584
v -0.168276 0.313067 -0.025584
v -0.147757 0.312589 -0.025584
v -0.127211 0.311160 -0.025584
v -0.106651 0.308786 -0.025584
v -0.086090 0.305474 -0.025584
v -0.065544 0.301233 -0.025584
v -0.045026 0.296067 -0.025584
v -0.024549 0.289985 -0.025584
v -0.004128 0.282993 -0.025584
v 0.016224 0.275098 -0.025584
v 0.036493 0.266308 -0.025584
v 0.056664 0.256628 -0.025584
v 0.076724 0.246067 -0.025584
v 0.076724 0.345067 -0.025584
v 0.050994 0.355661 -0.025584
v 0.027127 0.364988 -0.025584
v 0.004865 0.373114 -0.025584
v -0.016053 0.380104 -0.025584
v -0.035888 0.386025 -0.025584
v -0.054901 0.390942 -0.025584
v -0.073350 0.394922 -0.025584
v -0.091498 0.398030 -0.025584
v -0.109604 0.400333 -0.025584
v -0.127928 0.401896 -0.025584
v -0.146732 0.402785 -0.025584
v -0.166276 0.403067 -0.025584
v -0.217171 0.399940 -0.025584
v -0.265609 0.390803 -0.025584
v -0.311213 0.376020 -0.025584
v -0.353609 0.355956 -0.025584
v -0.392421 0.330975 -0.025584
v -0.427276 0.301442 -0.025584
v -0.457796 0.267722 -0.025584
v -0.483609 0.230178 -0.025584
v -0.504338 0.189176 -0.025584
v -0.519609 0.145081 -0.025584
v -0.529046 0.098256 -0.025584
v -0.532276 0.049067 -0.025584
v -0.529125 0.000245 -0.025584
v -0.519901 -0.046007 -0.025584
v -0.504947 -0.089370 -0.025584
v -0.484609 -0.129526 -0.025584
v -0.459229 -0.166153 -0.025584
v -0.429151 -0.198933 -0.025584
v -0.394718 -0.227546 -0.025584
v -0.356276 -0.251674 -0.025584
v -0.314166 -0.270995 -0.025584
v -0.268734 -0.285192 -0.025584
v -0.220322 -0.293944 -0.025584
v -0.169276 -0.296933 -0.025584
v -0.145941 -0.296595 -0.025584
v -0.123350 -0.295563 -0.025584
v -0.101369 -0.293808 -0.025584
v -0.079868 -0.291303 -0.025584
v -0.058714 -0.288021 -0.025584
v -0.037776 -0.283933 -0.025584
v -0.016920 -0.279012 -0.025584
v 0.003984 -0.273229 -0.025584
v 0.025068 -0.266558 -0.025584
v 0.046465 -0.258970 -0.025584
v 0.068307 -0.250438 -0.025584
v 0.090724 -0.240933 -0.025584
v -0.658276 0.394067 -0.025584
v -0.756276 0.394067 -0.025584
v -0.756276 -0.287933 -0.025584
v -0.658276 -0.287933 -0.025584
v -1.150276 0.394067 -0.025584
v -1.248276 0.394067 -0.025584
v -1.248276 -0.287933 -0.025584
v -0.842276 -0.287933 -0.025584
v -0.842276 -0.199933 -0.025584
v -1.150276 -0.199933 -0.025584
vt 0.285714 0.000000
vt 0.000000 0.000000
vt 0.142857 0.000000
vt 1.000000 0.000000
vt 0.428571 0.000000
vt 0.571429 0.000000
vt 0.857143 0.000000
vt 0.714286 0.000000
vt 0.545455 0.000000
vt 0.363636 0.000000
vt 0.454545 0.000000
vt 0.272727 0.000000
vt 0.181818 0.000000
vt 0.000000 0.000000
vt 0.090909 0.000000
vt 1.000000 0.000000
vt 0.727273 0.000000
vt 0.818182 0.000000
vt 0.636364 0.000000
vt 0.909091 0.000000
vt 0.653465 0.000000
vt 0.633663 0.000000
vt 0.643564 0.000000
vt 0.623762 0.000000
vt 0.613861 0.000000
vt 0.603960 0.000000
vt 0.663366 0.000000
vt 0.594059 0.000000
vt 0.584158 0.000000
vt 0.574257 0.000000
vt 0.673267 0.000000
vt 0.564356 0.000000
vt 0.554455 0.000000
vt 0.683168 0.000000
vt 0.544554 0.000000
vt 0.534653 0.000000
vt 0.693069 0.000000
vt 0.524752 0.000000
vt 0.415842 0.000000
vt 0.425743 0.000000
vt 0.435644 0.000000
vt 0.445545 0.000000
vt 0.455446 0.000000
vt 0.465347 0.000000
vt 0.475248 0.000000
vt 0.485149 0.000000
vt 0.495050 0.000000
vt 0.504951 0.000000
vt 0.514852 0.000000
vt 0.702970 0.000000
vt 0.396040 0.000000
vt 0.405941 0.000000
vt 0.386139 0.000000
vt 0.376238 0.000000
vt 0.366337 0.000000
vt 0.712871 0.000000
vt 0.356436 0.000000
vt 0.346535 0.000000
vt 0.722772 0.000000
vt 0.336634 0.000000
vt 0.326733 0.000000
vt 0.732673 0.000000
vt 0.316832 0.000000
vt 0.742574 0.000000
vt 0.306931 0.000000
vt 0.297030 0.000000
vt 0.752475 0.000000
vt 0.287129 0.000000
vt 0.762376 0.000000
vt 0.277228 0.000000
vt 0.267327 0.000000
vt 0.772277 0.000000
vt 0.019802 0.000000
vt 0.000000 0.000000
vt 0.009901 0.000000
vt 0.029703 0.000000
vt 1.000000 0.000000
vt 0.257426 0.000000
vt 0.782178 0.000000
vt 0.247525 0.000000
vt 0.039604 0.000000
vt 0.792079 0.000000
vt 0.237624 0.000000
vt 0.227723 0.000000
vt 0.801980 0.000000
vt 0.217822 0.000000
vt 0.811881 0.000000
vt 0.207921 0.000000
vt 0.198020 0.000000
vt 0.821782 0.000000
vt 0.188119 0.000000
vt 0.049505 0.000000
vt 0.059406 0.000000
vt 0.069307 0.000000
vt 0.178218 0.000000
vt 0.079208 0.000000
vt 0.089109 0.000000
vt 0.099010 0.000000
vt 0.168317 0.000000
vt 0.831683 0.000000
vt 0.108911 0.000000
vt 0.118812 0.000000
vt 0.128713 0.000000
vt 0.158416 0.000000
vt 0.138614 0.000000
vt 0.148515 0.000000
vt 0.841584 0.000000
vt 0.990099 0.000000
vt 0.980198 0.000000
vt 0.851485 0.000000
vt 0.970297 0.000000
vt 0.960396 0.000000
vt 0.861386 0.000000
vt 0.950495 0.000000
vt 0.940594 0.000000
vt 0.930693 0.000000
vt 0.871287 0.000000
vt 0.920792 0.000000
vt 0.910891 0.000000
vt 0.900990 0.000000
vt 0.881188 0.000000
vt 0.891089 0.000000
vt 0.666667 0.000000
vt 0.000000 0.000000
vt 0.333333 0.000000
vt 1.000000 0.000000
vt 0.400000 0.000000
vt 0.000000 0.000000
vt 0.200000 0.000000
vt 1.000000 0.000000
vt 0.800000 0.000000
vt 0.600000 0.000000
vn 0.0000 0.0000 1.0000
usemtl None
s off
f 3/1/1 1/2/1 2/3/1
f 3/1/1 8/4/1 1/2/1
f 4/5/1 8/4/1 3/1/1
f 5/6/1 7/7/1 4/5/1
f 7/7/1 8/4/1 4/5/1
f 5/6/1 6/8/1 7/7/1
f 15/9/1 13/10/1 14/11/1
f 15/9/1 12/12/1 13/10/1
f 11/13/1 9/14/1 10/15/1
f 11/13/1 20/16/1 9/14/1
f 15/9/1 17/17/1 12/12/1
f 17/17/1 11/13/1 12/12/1
f 17/17/1 18/18/1 11/13/1
f 18/18/1 20/16/1 11/13/1
f 15/9/1 16/19/1 17/17/1
f 19/20/1 20/16/1 18/18/1
f 87/21/1 85/22/1 86/23/1
f 87/21/1 84/24/1 85/22/1
f 87/21/1 83/25/1 84/24/1
f 87/21/1 82/26/1 83/25/1
f 88/27/1 82/26/1 87/21/1
f 88/27/1 81/28/1 82/26/1
f 88/27/1 80/29/1 81/28/1
f 88/27/1 79/30/1 80/29/1
f 89/31/1 79/30/1 88/27/1
f 89/31/1 78/32/1 79/30/1
f 89/31/1 77/33/1 78/32/1
f 90/34/1 77/33/1 89/31/1
f 90/34/1 76/35/1 77/33/1
f 90/34/1 75/36/1 76/35/1
f 91/37/1 75/36/1 90/34/1
f 91/37/1 74/38/1 75/36/1
f 91/37/1 63/39/1 74/38/1
f 63/39/1 64/40/1 74/38/1
f 64/40/1 65/41/1 74/38/1
f 65/41/1 66/42/1 74/38/1
f 66/42/1 67/43/1 74/38/1
f 67/43/1 68/44/1 74/38/1
f 68/44/1 69/45/1 74/38/1
f 69/45/1 70/46/1 74/38/1
f 70/46/1 71/47/1 74/38/1
f 71/47/1 72/48/1 74/38/1
f 72/48/1 73/49/1 74/38/1
f 92/50/1 61/51/1 91/37/1
f 61/51/1 62/52/1 91/37/1
f 62/52/1 63/39/1 91/37/1
f 92/50/1 60/53/1 61/51/1
f 92/50/1 59/54/1 60/53/1
f 92/50/1 58/55/1 59/54/1
f 93/56/1 58/55/1 92/50/1
f 93/56/1 57/57/1 58/55/1
f 93/56/1 56/58/1 57/57/1
f 94/59/1 56/58/1 93/56/1
f 94/59/1 55/60/1 56/58/1
f 94/59/1 54/61/1 55/60/1
f 95/62/1 54/61/1 94/59/1
f 95/62/1 53/63/1 54/61/1
f 96/64/1 53/63/1 95/62/1
f 96/64/1 52/65/1 53/63/1
f 96/64/1 51/66/1 52/65/1
f 97/67/1 51/66/1 96/64/1
f 97/67/1 50/68/1 51/66/1
f 98/69/1 50/68/1 97/67/1
f 98/69/1 49/70/1 50/68/1
f 98/69/1 48/71/1 49/70/1
f 99/72/1 48/71/1 98/69/1
f 23/73/1 21/74/1 22/75/1
f 23/73/1 24/76/1 21/74/1
f 24/76/1 122/77/1 21/74/1
f 99/72/1 47/78/1 48/71/1
f 100/79/1 47/78/1 99/72/1
f 100/79/1 46/80/1 47/78/1
f 25/81/1 122/77/1 24/76/1
f 101/82/1 46/80/1 100/79/1
f 101/82/1 45/83/1 46/80/1
f 101/82/1 44/84/1 45/83/1
f 102/85/1 44/84/1 101/82/1
f 102/85/1 43/86/1 44/84/1
f 103/87/1 43/86/1 102/85/1
f 103/87/1 42/88/1 43/86/1
f 103/87/1 41/89/1 42/88/1
f 104/90/1 41/89/1 103/87/1
f 104/90/1 40/91/1 41/89/1
f 26/92/1 122/77/1 25/81/1
f 27/93/1 122/77/1 26/92/1
f 28/94/1 122/77/1 27/93/1
f 104/90/1 39/95/1 40/91/1
f 29/96/1 122/77/1 28/94/1
f 30/97/1 122/77/1 29/96/1
f 31/98/1 122/77/1 30/97/1
f 104/90/1 38/99/1 39/95/1
f 105/100/1 38/99/1 104/90/1
f 32/101/1 122/77/1 31/98/1
f 33/102/1 122/77/1 32/101/1
f 34/103/1 122/77/1 33/102/1
f 105/100/1 37/104/1 38/99/1
f 35/105/1 122/77/1 34/103/1
f 36/106/1 122/77/1 35/105/1
f 37/104/1 122/77/1 36/106/1
f 105/100/1 122/77/1 37/104/1
f 106/107/1 122/77/1 105/100/1
f 106/107/1 121/108/1 122/77/1
f 106/107/1 120/109/1 121/108/1
f 107/110/1 120/109/1 106/107/1
f 107/110/1 119/111/1 120/109/1
f 107/110/1 118/112/1 119/111/1
f 108/113/1 118/112/1 107/110/1
f 108/113/1 117/114/1 118/112/1
f 108/113/1 116/115/1 117/114/1
f 108/113/1 115/116/1 116/115/1
f 109/117/1 115/116/1 108/113/1
f 109/117/1 114/118/1 115/116/1
f 109/117/1 113/119/1 114/118/1
f 109/117/1 112/120/1 113/119/1
f 110/121/1 112/120/1 109/117/1
f 110/121/1 111/122/1 112/120/1
f 125/123/1 123/124/1 124/125/1
f 125/123/1 126/126/1 123/124/1
f 129/127/1 127/128/1 128/129/1
f 129/127/1 132/130/1 127/128/1
f 129/127/1 131/131/1 132/130/1
f 129/127/1 130/132/1 131/131/1
